<svg width="21" height="20" viewBox="0 0 21 20" fill="none" xmlns="http://www.w3.org/2000/svg">
<g clip-path="url(#clip0_220_4008)">
<rect x="0.5" width="20" height="20" rx="10" fill="#3BB77E"/>
<path fill-rule="evenodd" clip-rule="evenodd" d="M15.5554 8.77734H5.15808C4.91658 8.77734 4.72058 8.58134 4.72058 8.33984C4.72058 8.09834 4.91658 7.90234 5.15808 7.90234H15.5554C15.7969 7.90234 15.9929 8.09834 15.9929 8.33984C15.9929 8.58134 15.7969 8.77734 15.5554 8.77734Z" fill="white"/>
<path fill-rule="evenodd" clip-rule="evenodd" d="M12.9507 11.0554C12.7092 11.0554 12.5109 10.8594 12.5109 10.6179C12.5109 10.3764 12.7039 10.1804 12.9454 10.1804H12.9507C13.1922 10.1804 13.3882 10.3764 13.3882 10.6179C13.3882 10.8594 13.1922 11.0554 12.9507 11.0554Z" fill="white"/>
<path fill-rule="evenodd" clip-rule="evenodd" d="M10.3621 11.0554C10.1206 11.0554 9.92224 10.8594 9.92224 10.6179C9.92224 10.3764 10.1153 10.1804 10.3568 10.1804H10.3621C10.6036 10.1804 10.7996 10.3764 10.7996 10.6179C10.7996 10.8594 10.6036 11.0554 10.3621 11.0554Z" fill="white"/>
<path fill-rule="evenodd" clip-rule="evenodd" d="M7.76818 11.0554C7.52668 11.0554 7.32776 10.8594 7.32776 10.6179C7.32776 10.3764 7.52143 10.1804 7.76293 10.1804H7.76818C8.00968 10.1804 8.20568 10.3764 8.20568 10.6179C8.20568 10.8594 8.00968 11.0554 7.76818 11.0554Z" fill="white"/>
<path fill-rule="evenodd" clip-rule="evenodd" d="M12.9507 13.3228C12.7092 13.3228 12.5109 13.1268 12.5109 12.8853C12.5109 12.6438 12.7039 12.4478 12.9454 12.4478H12.9507C13.1922 12.4478 13.3882 12.6438 13.3882 12.8853C13.3882 13.1268 13.1922 13.3228 12.9507 13.3228Z" fill="white"/>
<path fill-rule="evenodd" clip-rule="evenodd" d="M10.3621 13.3228C10.1206 13.3228 9.92224 13.1268 9.92224 12.8853C9.92224 12.6438 10.1153 12.4478 10.3568 12.4478H10.3621C10.6036 12.4478 10.7996 12.6438 10.7996 12.8853C10.7996 13.1268 10.6036 13.3228 10.3621 13.3228Z" fill="white"/>
<path fill-rule="evenodd" clip-rule="evenodd" d="M7.76818 13.3228C7.52668 13.3228 7.32776 13.1268 7.32776 12.8853C7.32776 12.6438 7.52143 12.4478 7.76293 12.4478H7.76818C8.00968 12.4478 8.20568 12.6438 8.20568 12.8853C8.20568 13.1268 8.00968 13.3228 7.76818 13.3228Z" fill="white"/>
<path fill-rule="evenodd" clip-rule="evenodd" d="M12.7129 6.378C12.4714 6.378 12.2754 6.182 12.2754 5.9405V4.02075C12.2754 3.77925 12.4714 3.58325 12.7129 3.58325C12.9544 3.58325 13.1504 3.77925 13.1504 4.02075V5.9405C13.1504 6.182 12.9544 6.378 12.7129 6.378Z" fill="white"/>
<path fill-rule="evenodd" clip-rule="evenodd" d="M8.00061 6.378C7.75911 6.378 7.56311 6.182 7.56311 5.9405V4.02075C7.56311 3.77925 7.75911 3.58325 8.00061 3.58325C8.24211 3.58325 8.43811 3.77925 8.43811 4.02075V5.9405C8.43811 6.182 8.24211 6.378 8.00061 6.378Z" fill="white"/>
<mask id="mask0_220_4008" style="mask-type:luminance" maskUnits="userSpaceOnUse" x="4" y="4" width="13" height="13">
<path fill-rule="evenodd" clip-rule="evenodd" d="M4.66663 4.50439H16.0416V16.1249H4.66663V4.50439Z" fill="white"/>
</mask>
<g mask="url(#mask0_220_4008)">
<path fill-rule="evenodd" clip-rule="evenodd" d="M7.88721 5.37939C6.37463 5.37939 5.54163 6.18614 5.54163 7.65089V12.9295C5.54163 14.4263 6.37463 15.25 7.88721 15.25H12.821C14.3336 15.25 15.1666 14.4415 15.1666 12.9738V7.65089C15.169 6.93048 14.9753 6.37048 14.5909 5.98548C14.1954 5.58881 13.5858 5.37939 12.8263 5.37939H7.88721ZM12.821 16.125H7.88721C5.90096 16.125 4.66663 14.9006 4.66663 12.9295V7.65089C4.66663 5.70956 5.90096 4.50439 7.88721 4.50439H12.8263C13.8232 4.50439 14.6475 4.80306 15.2104 5.36714C15.757 5.91606 16.0445 6.70531 16.0416 7.65206V12.9738C16.0416 14.9175 14.8073 16.125 12.821 16.125Z" fill="white"/>
</g>
</g>
<rect x="1" y="0.5" width="19" height="19" rx="9.5" stroke="#3BB77E"/>
<defs>
<clipPath id="clip0_220_4008">
<rect x="0.5" width="20" height="20" rx="10" fill="white"/>
</clipPath>
</defs>
</svg>
