<svg width="21" height="16" viewBox="0 0 21 16" fill="none" xmlns="http://www.w3.org/2000/svg">
<path fill-rule="evenodd" clip-rule="evenodd" d="M20.4 6.03839C20.4 6.42724 20.075 6.74282 19.6745 6.74282C18.9616 6.74282 18.3813 7.30731 18.3813 7.99953C18.3813 8.69175 18.9616 9.2553 19.6745 9.2553C19.867 9.2553 20.0518 9.3295 20.1872 9.46193C20.3236 9.59342 20.4 9.77376 20.4 9.95973L20.3991 12.3257C20.3991 14.3526 18.7014 16 16.614 16H4.18606C2.09958 16 0.401959 14.3526 0.401959 12.3257L0.400024 9.88365C0.400024 9.69768 0.476442 9.51735 0.612832 9.38491C0.749222 9.25342 0.93301 9.17922 1.1255 9.17922C1.86259 9.17922 2.41879 8.67203 2.41879 7.99953C2.41879 7.30731 1.83937 6.74282 1.1255 6.74282C0.725039 6.74282 0.400024 6.42724 0.400024 6.03839V3.67432C0.400024 1.64837 2.09764 0 4.18412 0H5.4097C5.81016 0 6.13518 0.315586 6.13518 0.704432C6.13518 1.09328 5.81016 1.40886 5.4097 1.40886H4.18412C2.89761 1.40886 1.85098 2.42512 1.85098 3.67432V5.42882C3.01368 5.73877 3.86975 6.77288 3.86975 7.99953C3.86975 9.21303 3.02723 10.2068 1.85195 10.4998L1.85292 12.3257C1.85292 13.5749 2.89954 14.5911 4.18606 14.5911H11.4273V13.3936C11.4273 13.0048 11.7523 12.6892 12.1528 12.6892C12.5532 12.6892 12.8783 13.0048 12.8783 13.3936V14.5911H16.614C17.9015 14.5911 18.9481 13.5749 18.9481 12.3257L18.9491 10.5693C17.7864 10.2593 16.9303 9.22524 16.9303 7.99953C16.9303 6.77288 17.7864 5.73877 18.9491 5.42882V3.67432C18.9491 2.42512 17.9024 1.40886 16.6159 1.40886H12.8783V2.97834C12.8783 3.36719 12.5532 3.68277 12.1528 3.68277C11.7523 3.68277 11.4273 3.36719 11.4273 2.97834V1.40886H9.46367C9.06321 1.40886 8.73819 1.09328 8.73819 0.704432C8.73819 0.315586 9.06321 0 9.46367 0H16.6159C18.7024 0 20.4 1.64837 20.4 3.67432V6.03839ZM12.8784 10.1678C12.8784 10.5566 12.5533 10.8722 12.1529 10.8722C11.7524 10.8722 11.4274 10.5566 11.4274 10.1678V6.4108C11.4274 6.02196 11.7524 5.70637 12.1529 5.70637C12.5533 5.70637 12.8784 6.02196 12.8784 6.4108V10.1678Z" fill="#9E9E9E"/>
</svg>
