<svg width="12" height="12" viewBox="0 0 12 12" fill="none" xmlns="http://www.w3.org/2000/svg">
<g clip-path="url(#clip0_220_3909)">
<rect width="12" height="12" rx="6" fill="#3BB77E"/>
<path d="M9.1772 3.30187C9.25494 3.37294 9.30204 3.47281 9.30815 3.57953C9.31426 3.68625 9.27888 3.7911 9.20979 3.87104L5.02175 8.71158C4.98491 8.75417 4.93971 8.78826 4.88912 8.8116C4.83853 8.83494 4.7837 8.84701 4.72824 8.84701C4.67278 8.84701 4.61795 8.83494 4.56736 8.8116C4.51677 8.78826 4.47157 8.75417 4.43473 8.71158L2.34071 6.29131C2.27558 6.21082 2.24345 6.10747 2.25111 6.0031C2.25878 5.89872 2.30564 5.80149 2.38179 5.73195C2.45794 5.66241 2.55742 5.62601 2.65922 5.63042C2.76102 5.63484 2.85716 5.67974 2.92733 5.75562L4.72804 7.83665L8.62316 3.33495C8.6924 3.25514 8.78963 3.20683 8.89352 3.20063C8.9974 3.19443 9.09943 3.23084 9.1772 3.30187Z" fill="white"/>
</g>
<rect x="0.5" y="0.5" width="11" height="11" rx="5.5" stroke="#3BB77E"/>
<defs>
<clipPath id="clip0_220_3909">
<rect width="12" height="12" rx="6" fill="white"/>
</clipPath>
</defs>
</svg>
